<?xml version="1.0" standalone="no"?>
<!DOCTYPE svg PUBLIC "-//W3C//DTD SVG 20010904//EN"
 "http://www.w3.org/TR/2001/REC-SVG-20010904/DTD/svg10.dtd">
<svg version="1.0" xmlns="http://www.w3.org/2000/svg"
 width="500.000000pt" height="500.000000pt" viewBox="0 0 500.000000 500.000000"
 preserveAspectRatio="xMidYMid meet">

<g transform="translate(0.000000,500.000000) scale(0.100000,-0.100000)"
fill="#000000" stroke="none">
<path d="M2290 4495 c-83 -29 -315 -148 -351 -180 -20 -18 -43 -36 -51 -41
-20 -12 -145 -189 -173 -244 -30 -60 -52 -131 -66 -213 -31 -185 -115 -39
-148 259 -10 85 -21 158 -26 162 -12 11 3 -236 18 -303 28 -117 28 -121 7 -72
-54 127 -64 397 -21 536 13 43 15 59 6 51 -24 -20 -65 -121 -92 -223 -23 -91
-25 -114 -21 -226 6 -136 31 -232 86 -336 27 -49 114 -146 129 -144 21 4 33
-2 33 -16 0 -8 7 -15 15 -15 12 0 13 -4 6 -18 -7 -14 -5 -21 10 -30 10 -7 19
-19 19 -27 0 -21 16 -19 25 3 5 14 10 10 27 -22 16 -31 18 -44 9 -62 -6 -13
-15 -24 -20 -24 -6 0 -20 -10 -31 -22 -28 -30 -19 -78 23 -131 49 -62 35 -72
-104 -72 -110 0 -166 -7 -216 -26 -31 -11 -46 -12 -39 0 3 5 0 11 -8 14 -8 3
-23 -9 -38 -31 -20 -31 -29 -36 -53 -34 -48 5 -56 18 -53 85 3 58 2 61 -27 77
-16 10 -42 20 -57 24 -23 5 -27 3 -30 -19 -2 -14 -7 -26 -13 -26 -5 -1 -17 -5
-27 -10 -17 -9 -78 7 -78 21 0 16 20 21 41 9 15 -8 19 -8 15 0 -5 7 3 11 21
12 17 1 21 3 11 6 -19 5 -25 23 -7 23 6 0 4 7 -5 15 -8 8 -18 15 -22 15 -4 0
-15 7 -25 16 -16 14 -19 14 -34 -10 -18 -27 -71 -38 -62 -13 4 12 -29 47 -45
47 -5 0 -4 -9 2 -19 5 -11 10 -30 10 -43 -1 -20 -3 -19 -23 14 -18 29 -26 34
-40 27 -9 -6 -17 -17 -17 -25 0 -8 -4 -13 -9 -10 -5 4 -23 -13 -40 -36 -60
-82 -30 -164 70 -188 32 -8 55 -20 65 -35 8 -12 49 -37 92 -55 42 -19 101 -51
130 -72 79 -58 145 -88 236 -107 54 -11 99 -27 132 -48 48 -31 145 -63 191
-63 13 0 26 -6 29 -13 6 -17 -41 -167 -71 -228 -135 -266 -440 -631 -735 -877
-143 -120 -200 -176 -200 -198 0 -11 24 6 69 49 62 60 85 73 126 69 6 0 99
-25 207 -55 108 -30 216 -58 240 -62 75 -13 77 -40 8 -114 -27 -29 -54 -70
-60 -90 -15 -54 -12 -223 5 -331 14 -85 14 -96 0 -106 -21 -15 -19 -21 10 -28
15 -4 25 -14 25 -24 0 -14 2 -15 10 -2 7 11 11 9 19 -13 11 -28 15 -75 4 -49
-2 6 -11 12 -19 12 -8 0 -14 4 -14 10 0 18 -52 61 -81 67 -22 4 -29 2 -29 -10
0 -10 -6 -13 -18 -10 -24 6 -69 -52 -73 -93 -2 -16 0 -50 4 -76 14 -81 87
-119 205 -105 79 9 306 67 321 81 16 17 40 125 41 187 0 43 3 48 83 127 87 85
98 105 113 205 l6 49 32 -30 c17 -16 42 -35 56 -43 36 -18 138 -16 177 4 30
16 34 16 67 -4 85 -50 211 -61 354 -32 80 17 85 17 114 0 17 -10 52 -20 77
-23 87 -10 86 -9 87 -57 2 -53 36 -116 94 -170 22 -21 43 -51 46 -65 12 -56
25 -74 72 -95 44 -21 60 -22 288 -21 252 1 305 9 324 45 8 14 7 19 -1 19 -9 0
-9 3 0 14 9 11 6 15 -14 20 -14 4 -23 11 -20 16 3 5 1 11 -5 15 -5 3 -10 -2
-10 -12 -1 -16 -3 -15 -20 6 -17 19 -23 21 -35 11 -8 -7 -22 -9 -31 -6 -15 6
-15 8 1 26 13 14 31 20 64 20 71 0 176 26 234 57 68 37 148 117 181 181 112
222 173 468 183 742 11 312 -47 599 -184 910 -66 149 -118 242 -184 331 -56
76 -212 229 -233 229 -8 0 -20 2 -28 5 -13 5 -75 -73 -70 -87 1 -5 -10 -8 -25
-9 -21 -1 -18 -3 14 -9 23 -5 61 -18 85 -30 24 -11 34 -17 23 -14 -45 15 -115
27 -121 22 -3 -4 -2 -12 2 -19 4 -7 9 -25 11 -39 1 -14 6 -55 11 -92 8 -62 7
-69 -12 -82 -20 -14 -19 -15 14 -15 35 -1 35 -1 33 -43 -9 -169 -9 -186 7
-180 8 3 0 -7 -18 -22 -30 -26 -73 -93 -72 -113 1 -4 8 6 17 22 30 58 88 105
128 105 15 0 15 -1 1 -16 -22 -21 -20 -47 4 -69 11 -10 34 -40 51 -67 l32 -50
31 58 31 58 9 -116 9 -117 69 -17 c38 -9 72 -23 75 -30 4 -12 -32 -84 -43 -84
-2 0 5 18 16 40 19 37 19 40 3 48 -33 17 -83 24 -83 12 0 -6 4 -9 9 -5 5 3 12
1 15 -3 3 -5 -12 -26 -34 -47 -22 -21 -37 -42 -34 -47 3 -4 0 -8 -7 -8 -8 0
-10 -14 -6 -49 6 -49 6 -50 -14 -30 -20 20 -27 45 -9 34 6 -3 10 4 10 17 0 18
-7 13 -34 -28 -19 -28 -36 -64 -39 -80 -4 -28 -4 -27 -6 5 -1 40 62 147 91
155 22 5 24 26 2 26 -8 0 -12 -4 -9 -10 3 -5 1 -10 -5 -10 -7 0 -14 9 -17 21
-4 16 -8 17 -14 7 -12 -18 -11 -31 1 -23 13 8 13 -5 0 -25 -6 -10 -10 -11 -10
-2 0 19 -126 17 -134 -3 -4 -13 -15 -9 -55 21 l-50 37 75 44 c54 32 74 49 70
60 -3 8 -6 21 -6 29 0 11 -6 11 -27 3 -14 -5 -49 -9 -76 -8 l-49 3 4 65 c5 65
5 65 -8 26 -7 -22 -13 -59 -13 -82 -1 -24 -4 -43 -8 -43 -23 0 -163 77 -163
90 -2 22 -18 -20 -19 -48 -1 -33 -29 -58 -78 -71 -36 -10 -48 -9 -75 5 -18 9
-36 22 -40 28 -5 7 -8 6 -9 -4 -1 -8 -5 1 -9 20 l-7 35 -2 -45 -1 -46 -68 -2
c-54 -3 -71 0 -82 13 -8 10 -24 21 -37 26 -13 5 -23 16 -23 24 0 9 -4 13 -10
10 -6 -4 -10 18 -11 57 0 35 -4 72 -8 83 -8 19 -8 19 -20 0 -17 -27 -6 134 15
225 26 112 93 283 135 341 l21 30 -22 24 c-18 19 -33 24 -65 23 -59 -1 -65 5
-52 47 13 42 28 41 39 -3 5 -18 13 -32 19 -32 11 0 10 7 -7 66 -5 19 -1 22 43
27 26 3 51 3 55 1 4 -3 12 -23 18 -45 9 -33 8 -45 -5 -67 -9 -15 6 -2 34 28
l50 54 -41 48 c-38 46 -69 74 -54 50 15 -25 -6 -29 -70 -12 -45 11 -72 25 -85
41 -17 23 -17 23 -40 4 -26 -24 -54 -83 -68 -145 -5 -25 -17 -62 -26 -83 -13
-32 -18 -37 -30 -27 -8 7 -15 21 -15 31 0 10 -15 29 -33 43 -28 22 -45 26
-100 26 -36 0 -69 5 -72 10 -3 6 3 22 15 37 20 26 20 28 4 40 -10 7 -26 13
-36 13 -19 0 -58 37 -58 56 0 24 32 23 91 -1 70 -30 94 -24 50 12 -17 14 -31
30 -31 35 0 6 29 7 67 5 43 -4 89 0 126 10 32 8 66 12 75 8 9 -3 13 -3 9 2 -4
4 23 15 60 24 50 12 60 17 38 19 l-30 2 28 10 c27 10 33 19 21 31 -4 3 -7 23
-9 44 -1 21 -11 58 -22 83 l-20 44 4 -64 3 -65 -17 35 c-44 92 -47 101 -32
111 8 5 22 9 31 9 9 0 19 4 22 9 3 5 43 14 88 21 63 9 93 10 125 1 46 -13 98
-65 109 -108 4 -15 18 -39 32 -53 13 -14 31 -41 39 -60 16 -36 20 -122 8 -161
-5 -16 -4 -20 6 -16 8 3 31 11 52 18 28 9 37 17 37 35 0 13 -4 25 -9 28 -4 3
-11 31 -14 63 -8 73 -66 194 -110 227 -57 42 -124 60 -222 61 -49 0 -107 -4
-128 -8 -61 -13 -35 8 28 23 69 17 81 31 23 28 -28 -2 -42 1 -41 8 1 7 -6 10
-17 7 -14 -4 -20 0 -20 11 0 9 -4 16 -10 16 -5 0 -7 7 -3 16 3 9 0 20 -7 24
-9 6 -5 20 20 56 l32 49 -34 -35 c-18 -20 -52 -58 -76 -85 -24 -28 -38 -40
-33 -28 15 29 15 30 -14 37 -17 4 -25 14 -26 29 -1 14 -4 9 -8 -13 -6 -30 -8
-24 -15 42 l-8 78 -69 20 c-38 11 -102 29 -141 41 -40 11 -77 25 -82 29 -4 4
18 14 50 20 74 15 81 20 58 37 -10 8 -20 18 -20 23 -1 6 -2 14 -3 20 0 5 -9 6
-18 3 -15 -6 -15 -7 2 -13 16 -6 17 -7 2 -13 -11 -4 -18 1 -22 14 -4 10 -12
19 -18 19 -7 0 -6 4 3 11 11 8 12 12 3 16 -7 2 -13 11 -13 18 0 8 -9 16 -19
20 -11 3 -21 18 -23 36 -6 40 2 80 14 73 8 -5 25 31 17 38 -9 8 47 58 59 53 7
-2 11 -1 8 4 -9 13 62 71 78 65 8 -3 34 0 57 7 24 6 71 15 104 19 l60 7 -62 2
c-44 1 -72 7 -95 21 l-33 21 40 -6 c27 -4 35 -3 25 3 -8 6 -58 13 -110 16 -73
5 -106 2 -140 -9z m220 -55 c-18 -11 -57 -13 -63 -2 -3 4 14 8 36 10 31 1 38
-1 27 -8z m-401 -90 c-31 -38 -39 -46 -39 -35 0 6 61 75 67 75 2 0 -11 -18
-28 -40z m71 21 c0 -5 -7 -12 -16 -15 -14 -5 -15 -4 -4 9 14 17 20 19 20 6z
m-15 -271 c44 -76 106 -204 120 -250 4 -14 -28 45 -72 130 -43 85 -97 182
-121 215 -39 54 -40 56 -8 20 20 -22 56 -74 81 -115z m130 30 c3 -5 1 -10 -4
-10 -6 0 -11 5 -11 10 0 6 2 10 4 10 3 0 8 -4 11 -10z m312 -452 c-3 -8 -6 -5
-6 6 -1 11 2 17 5 13 3 -3 4 -12 1 -19z m38 -209 c5 -5 18 -9 30 -9 21 0 45
-17 45 -32 0 -5 -12 -6 -27 -3 -42 9 -123 47 -123 58 0 10 61 -1 75 -14z m129
-309 c-6 -6 -19 -8 -29 -4 -17 7 -17 8 1 21 21 15 45 0 28 -17z m-1038 -108
c-18 -16 -18 -16 -6 6 6 13 14 21 18 18 3 -4 -2 -14 -12 -24z m2274 -623 c40
-105 34 -124 -7 -22 -47 115 -48 117 -35 109 6 -3 25 -43 42 -87z m-2054 25
c-5 -13 5 -14 82 -8 48 4 97 10 109 15 20 7 22 4 28 -39 3 -26 8 -58 11 -70 6
-32 -5 -26 -66 32 -49 46 -52 48 -81 36 -16 -7 -54 -30 -84 -51 -30 -21 -55
-36 -55 -34 0 11 53 135 57 135 3 0 2 -7 -1 -16z m607 -74 c53 -20 88 -49 100
-82 9 -25 2 -23 -42 13 l-38 30 -63 -25 c-68 -28 -80 -31 -80 -18 0 10 58 102
64 102 3 0 29 -9 59 -20z m-380 -179 c31 -10 47 -21 47 -32 0 -36 -66 -31
-200 13 l-65 22 70 12 c39 6 77 9 85 6 8 -3 36 -12 63 -21z m260 -42 c55 -22
114 -48 131 -57 l31 -17 -45 -5 -45 -5 75 -20 c67 -18 71 -20 40 -23 -72 -7
-140 9 -241 59 -56 27 -104 48 -106 45 -2 -2 12 -19 31 -38 20 -19 36 -38 36
-42 0 -10 -143 13 -218 36 -31 9 -32 11 -15 24 10 7 37 14 60 14 23 0 45 5 48
10 4 6 16 10 28 9 12 -1 40 -1 62 0 41 2 37 7 -20 26 -16 5 -17 8 -5 15 25 16
48 11 153 -31z m56 15 c92 -28 133 -51 69 -40 -60 11 -132 34 -153 50 -28 21
-15 20 84 -10z m-382 -40 c-3 -3 -12 -4 -19 -1 -8 3 -5 6 6 6 11 1 17 -2 13
-5z m187 -148 c22 -9 36 -19 33 -22 -8 -8 -106 15 -137 33 -24 13 -23 14 20
10 25 -2 63 -12 84 -21z m1501 -16 c10 -11 16 -20 13 -20 -3 0 -13 9 -23 20
-10 11 -16 20 -13 20 3 0 13 -9 23 -20z m-1707 -84 c97 -25 123 -36 81 -36
-24 1 -203 57 -184 59 6 0 52 -10 103 -23z m207 -101 c44 -13 123 -34 175 -47
112 -26 91 -34 -51 -19 -55 6 -120 11 -144 11 -51 0 -62 19 -12 21 l32 1 -35
10 c-102 27 -168 49 -184 61 -25 18 107 -5 219 -38z m-205 -27 c10 -6 7 -7
-10 -2 -14 3 -32 11 -40 16 -10 6 -7 7 10 2 14 -3 32 -11 40 -16z m277 -64
c-3 -3 -12 -4 -19 -1 -8 3 -5 6 6 6 11 1 17 -2 13 -5z m56 -11 c-7 -2 -19 -2
-25 0 -7 3 -2 5 12 5 14 0 19 -2 13 -5z m-639 -151 c74 -70 115 -182 65 -182
-17 0 -20 -5 -16 -22 12 -47 19 -108 13 -108 -3 0 -32 26 -65 59 -32 32 -74
64 -92 69 -47 15 -111 19 -115 7 -2 -5 17 -23 42 -40 47 -31 104 -97 104 -122
0 -10 -8 -9 -37 6 -21 10 -54 22 -73 26 -67 14 -125 76 -85 91 19 8 19 48 0
64 -12 10 -11 15 6 33 25 27 59 91 59 111 0 9 19 24 41 34 52 24 110 14 153
-26z m666 -46 c58 -8 132 -18 165 -22 93 -11 112 -25 25 -18 -99 7 -310 43
-329 55 -12 7 -10 8 9 4 14 -2 72 -11 130 -19z m98 -211 c-10 -23 -12 -23 -24
-7 -11 15 -10 18 9 24 12 3 23 6 24 7 2 1 -3 -10 -9 -24z m47 -25 c-10 -11
-20 -18 -23 -15 -3 3 3 14 13 25 10 11 20 18 23 15 3 -3 -3 -14 -13 -25z
m-122 -1 c-4 -15 -9 -17 -17 -9 -8 8 -7 13 4 20 8 5 16 10 17 10 0 0 -1 -9 -4
-21z m118 -34 c56 0 75 -3 72 -12 -3 -8 -20 -10 -51 -7 -26 2 -99 9 -162 15
-63 5 -117 12 -120 16 -3 3 35 2 84 -2 61 -5 87 -4 82 3 -3 6 -3 18 1 29 6 15
8 13 13 -12 l5 -30 76 0z m106 18 c-3 -10 -5 -4 -5 12 0 17 2 24 5 18 2 -7 2
-21 0 -30z m-1057 -98 c13 -14 21 -27 18 -30 -7 -7 -58 34 -58 46 0 16 16 10
40 -16z m-420 -515 c0 -5 -4 -10 -10 -10 -5 0 -10 5 -10 10 0 6 5 10 10 10 6
0 10 -4 10 -10z m2330 -60 c0 -5 -4 -10 -10 -10 -5 0 -10 5 -10 10 0 6 5 10
10 10 6 0 10 -4 10 -10z"/>
<path d="M3148 4391 c20 -38 38 -68 40 -66 5 5 -56 123 -68 130 -5 3 7 -25 28
-64z"/>
<path d="M2621 4372 c-1 -30 33 -231 36 -212 1 8 -6 65 -16 125 -10 61 -19
100 -20 87z"/>
<path d="M2953 4288 c50 -50 95 -105 112 -140 16 -31 31 -55 33 -53 8 7 -60
119 -101 168 -22 26 -59 61 -83 78 -35 24 -27 13 39 -53z"/>
<path d="M3217 4221 c4 -29 2 -46 -6 -51 -10 -6 -9 -18 3 -55 9 -26 14 -56 10
-67 -5 -17 17 -47 37 -48 8 0 -19 171 -36 223 l-14 42 6 -44z"/>
<path d="M3291 4245 c-1 -5 4 -39 10 -75 13 -78 5 -140 -21 -168 -16 -17 -17
-26 -9 -59 6 -21 14 -42 19 -46 13 -14 30 54 36 143 4 68 1 98 -15 150 -11 36
-20 61 -20 55z"/>
<path d="M2662 4105 c0 -16 2 -22 5 -12 2 9 2 23 0 30 -3 6 -5 -1 -5 -18z"/>
<path d="M2672 4045 c0 -16 2 -22 5 -12 2 9 2 23 0 30 -3 6 -5 -1 -5 -18z"/>
<path d="M3117 4015 c3 -22 7 -42 9 -44 8 -9 2 45 -6 64 -7 14 -8 8 -3 -20z"/>
<path d="M2428 4013 c7 -3 16 -2 19 1 4 3 -2 6 -13 5 -11 0 -14 -3 -6 -6z"/>
<path d="M3133 3910 c0 -25 2 -35 4 -22 2 12 2 32 0 45 -2 12 -4 2 -4 -23z"/>
<path d="M3226 3931 c-3 -5 1 -14 8 -20 12 -10 13 -8 9 8 -6 23 -9 25 -17 12z"/>
<path d="M2831 3914 c5 -13 173 -169 207 -192 12 -8 25 -12 28 -9 3 2 -41 44
-98 93 -139 118 -142 121 -137 108z"/>
<path d="M3230 3875 c13 -14 26 -25 28 -25 3 0 -5 11 -18 25 -13 14 -26 25
-28 25 -3 0 5 -11 18 -25z"/>
<path d="M3209 3865 c5 -11 15 -57 22 -103 7 -45 16 -82 20 -82 3 0 0 33 -7
73 -8 39 -14 77 -14 83 0 5 -7 19 -16 30 -15 19 -15 19 -5 -1z"/>
<path d="M3141 3824 c-2 -67 19 -248 30 -259 7 -7 8 -2 4 15 -3 14 -12 84 -19
155 -8 72 -14 111 -15 89z"/>
<path d="M2770 3699 c0 -5 5 -7 10 -4 6 3 10 8 10 11 0 2 -4 4 -10 4 -5 0 -10
-5 -10 -11z"/>
<path d="M3260 3651 c0 -6 4 -13 10 -16 6 -3 7 1 4 9 -7 18 -14 21 -14 7z"/>
<path d="M3210 3633 c0 -15 25 -34 41 -31 8 2 15 -8 17 -22 6 -43 23 -90 34
-90 6 0 7 8 3 18 -4 9 -9 33 -12 52 -6 40 -31 73 -49 66 -6 -2 -17 1 -23 7 -8
8 -11 8 -11 0z"/>
<path d="M2828 3458 c3 -30 13 -64 23 -77 11 -13 19 -30 19 -38 0 -8 4 -12 8
-9 5 3 21 -7 36 -23 27 -28 35 -29 103 -15 12 2 26 16 31 31 8 22 11 24 11 8
1 -16 8 -20 38 -20 64 0 54 29 -32 93 -27 20 -62 28 -89 21 -38 -10 -46 -5
-46 32 0 20 -4 28 -11 23 -7 -4 -9 -21 -6 -40 3 -19 2 -34 -3 -34 -14 0 -30
35 -31 67 0 27 -1 27 -10 5 -10 -26 -29 -21 -29 9 0 10 -4 19 -9 19 -4 0 -6
-24 -3 -52z m192 -98 c0 -5 -2 -10 -4 -10 -3 0 -8 5 -11 10 -3 6 -1 10 4 10 6
0 11 -4 11 -10z"/>
<path d="M3261 3354 c0 -11 3 -14 6 -6 3 7 2 16 -1 19 -3 4 -6 -2 -5 -13z"/>
<path d="M3295 3259 c-6 -29 -7 -41 -2 -37 1 2 19 -8 41 -21 31 -20 40 -21 47
-10 5 9 2 17 -12 24 -11 6 -18 13 -17 16 2 2 -9 16 -24 30 l-27 27 -6 -29z"/>
<path d="M3400 3201 c0 -5 7 -14 15 -21 16 -14 18 -10 9 14 -6 17 -24 22 -24
7z"/>
</g>
</svg>
